<svg width="56" height="56" viewBox="0 0 56 56" fill="none" xmlns="http://www.w3.org/2000/svg">
<path d="M29.2876 18.6667C27.9989 18.6667 26.9542 19.7114 26.9542 21C26.9542 22.2887 27.9989 23.3334 29.2876 23.3334H38.6209C39.9094 23.3334 40.9542 22.2887 40.9542 21C40.9542 19.7114 39.9094 18.6667 38.6209 18.6667H29.2876Z" fill="#EEEEEE"/>
<path d="M29.2876 39.6667C27.9989 39.6667 26.9542 40.7113 26.9542 42C26.9542 43.2887 27.9989 44.3334 29.2876 44.3334H38.6209C39.9094 44.3334 40.9542 43.2887 40.9542 42C40.9542 40.7113 39.9094 39.6667 38.6209 39.6667H29.2876Z" fill="#EEEEEE"/>
<path d="M29.2876 11.6667C27.9989 11.6667 26.9542 12.7114 26.9542 14C26.9542 15.2887 27.9989 16.3334 29.2876 16.3334H47.9542C49.2427 16.3334 50.2876 15.2887 50.2876 14C50.2876 12.7114 49.2427 11.6667 47.9542 11.6667H29.2876Z" fill="#EEEEEE"/>
<path d="M29.2876 32.6667C27.9989 32.6667 26.9542 33.7113 26.9542 35C26.9542 36.2887 27.9989 37.3334 29.2876 37.3334H47.9542C49.2427 37.3334 50.2876 36.2887 50.2876 35C50.2876 33.7113 49.2427 32.6667 47.9542 32.6667H29.2876Z" fill="#EEEEEE"/>
<path d="M8.04592 9.3382C6.75727 9.3382 5.71259 10.3829 5.71259 11.6715V23.3382C5.71259 24.6269 6.75727 25.6716 8.04592 25.6716H19.7126C21.0013 25.6716 22.0459 24.6269 22.0459 23.3382V11.6715C22.0459 10.3829 21.0013 9.3382 19.7126 9.3382H8.04592Z" fill="#EEEEEE"/>
<path d="M8.04592 30.3284C6.75727 30.3284 5.71259 31.3731 5.71259 32.6618V44.3284C5.71259 45.6171 6.75727 46.6618 8.04592 46.6618H19.7126C21.0013 46.6618 22.0459 45.6171 22.0459 44.3284V32.6618C22.0459 31.3731 21.0013 30.3284 19.7126 30.3284H8.04592Z" fill="#EEEEEE"/>
</svg>
