<svg width="58" height="58" viewBox="0 0 58 58" fill="none" xmlns="http://www.w3.org/2000/svg">
<g clip-path="url(#clip0_27_692)">
<path fill-rule="evenodd" clip-rule="evenodd" d="M33.9184 6.78797C34.8099 6.14627 36.0673 5.84619 37.304 6.29864C39.9558 7.26883 42.3881 8.68928 44.5092 10.4659C45.5172 11.3102 45.886 12.5474 45.7765 13.6395C45.5943 15.4589 45.9153 17.2155 46.7894 18.7297C47.5668 20.0762 48.7291 21.1398 50.1492 21.8875L50.6935 22.1531C51.6959 22.6049 52.585 23.5453 52.8103 24.8441C53.0447 26.196 53.1667 27.5848 53.1667 29.0002C53.1667 30.4157 53.0447 31.8048 52.8103 33.1567C52.6075 34.3255 51.8671 35.2041 50.9903 35.6975L50.6935 35.8476C49.0258 36.5995 47.664 37.7563 46.7894 39.2711C45.9153 40.7851 45.5943 42.5416 45.7765 44.3608C45.8858 45.4529 45.5172 46.69 44.5092 47.5344C42.3881 49.3109 39.9558 50.7314 37.3042 51.7015C36.0676 52.1541 34.8102 51.8539 33.9187 51.2121C32.4332 50.1429 30.75 49.5417 29 49.5417C27.2501 49.5417 25.5669 50.1429 24.0815 51.2121C23.19 51.8539 21.9325 52.1541 20.6958 51.7015C18.0442 50.7314 15.6118 49.3109 13.4906 47.5342C12.4827 46.69 12.114 45.4529 12.2234 44.3608C12.4056 42.5416 12.0845 40.7851 11.2103 39.2711C10.4329 37.9246 9.27075 36.861 7.85079 36.1132L7.30647 35.8476C6.30416 35.3957 5.41519 34.4554 5.18988 33.1567C4.95534 31.8048 4.83337 30.4157 4.83337 29.0002C4.83337 27.5846 4.95534 26.1957 5.18986 24.8436C5.39263 23.6748 6.13298 22.7962 7.0097 22.3028L7.30645 22.1527C8.97419 21.4009 10.3358 20.2442 11.2103 18.7293C12.0845 17.2153 12.4056 15.4587 12.2234 13.6395C12.114 12.5474 12.4827 11.3104 13.4906 10.4661C15.6118 8.68935 18.0443 7.26886 20.6961 6.29864C21.9327 5.84617 23.1901 6.14627 24.0816 6.78797C25.5669 7.85715 27.2501 8.45841 29 8.45841C30.75 8.45841 32.4332 7.85715 33.9184 6.78797ZM36.23 11.0633C34.1381 12.439 31.6712 13.2917 29 13.2917C26.3289 13.2917 23.8619 12.439 21.7701 11.0633C20.0759 11.7469 18.4997 12.6644 17.0815 13.7764C17.2259 16.2738 16.7306 18.8347 15.3961 21.146C14.0613 23.458 12.0905 25.1677 9.85468 26.2914C9.73087 27.1754 9.66671 28.0797 9.66671 29.0002C9.66671 29.9208 9.73087 30.8248 9.85468 31.7091C12.0905 32.8328 14.0613 34.5424 15.3961 36.8544C16.7306 39.1657 17.2259 41.7264 17.0815 44.2238C18.4996 45.3359 20.0758 46.2533 21.77 46.937C23.8617 45.5612 26.3289 44.7083 29 44.7083C31.6712 44.7083 34.1384 45.5612 36.2302 46.937C37.9241 46.2533 39.5002 45.336 40.9183 44.224C40.774 41.7267 41.2692 39.1657 42.6037 36.8544C43.9387 34.5422 45.9095 32.8326 48.1454 31.7088C48.2693 30.8248 48.3334 29.9208 48.3334 29.0002C48.3334 28.0797 48.2693 27.1757 48.1454 26.2919C45.9095 25.1681 43.9387 23.4584 42.6037 21.1463C41.2692 18.8348 40.7738 16.2738 40.9183 13.7762C39.5002 12.6643 37.9241 11.7469 36.23 11.0633ZM29 19.3333C34.3387 19.3333 38.6667 23.6613 38.6667 29C38.6667 34.3387 34.3387 38.6667 29 38.6667C23.6613 38.6667 19.3334 34.3387 19.3334 29C19.3334 23.6613 23.6613 19.3333 29 19.3333ZM29 24.1667C26.3306 24.1667 24.1667 26.3306 24.1667 29C24.1667 31.6695 26.3306 33.8333 29 33.8333C31.6695 33.8333 33.8334 31.6695 33.8334 29C33.8334 26.3306 31.6695 24.1667 29 24.1667Z" fill="#EEEEEE"/>
</g>
<defs>
<clipPath id="clip0_27_692">
<rect width="58" height="58" fill="white"/>
</clipPath>
</defs>
</svg>
