<svg width="56" height="56" viewBox="0 0 56 56" fill="none" xmlns="http://www.w3.org/2000/svg">
<path d="M20.9999 25.6666C23.5772 25.6666 25.6666 23.5773 25.6666 21C25.6666 18.4227 23.5772 16.3333 20.9999 16.3333C18.4226 16.3333 16.3333 18.4227 16.3333 21C16.3333 23.5773 18.4226 25.6666 20.9999 25.6666Z" stroke="#EEEEEE" stroke-width="4"/>
<path d="M30.3333 35C30.3333 37.5774 30.3333 39.6666 21 39.6666C11.6666 39.6666 11.6666 37.5774 11.6666 35C11.6666 32.4226 15.8453 30.3333 21 30.3333C26.1545 30.3333 30.3333 32.4226 30.3333 35Z" stroke="#EEEEEE" stroke-width="4"/>
<path d="M51.3333 28C51.3333 36.7994 51.3333 41.1994 48.5996 43.9329C45.8661 46.6666 41.4661 46.6666 32.6666 46.6666H23.3333C14.5337 46.6666 10.134 46.6666 7.40029 43.9329C4.66663 41.1994 4.66663 36.7994 4.66663 28C4.66663 19.2004 4.66663 14.8007 7.40029 12.067C10.134 9.33331 14.5337 9.33331 23.3333 9.33331H32.6666C41.4661 9.33331 45.8661 9.33331 48.5996 12.067C49.6953 13.1627 50.3519 14.5261 50.7453 16.3333" stroke="#EEEEEE" stroke-width="4" stroke-linecap="round"/>
<path d="M44.3333 28H35" stroke="#EEEEEE" stroke-width="4" stroke-linecap="round"/>
<path d="M44.3333 21H32.6666" stroke="#EEEEEE" stroke-width="4" stroke-linecap="round"/>
<path d="M44.3333 35H37.3333" stroke="#EEEEEE" stroke-width="4" stroke-linecap="round"/>
</svg>
